DancingScript-Bold.ufo
<glyph name="dollar" format="2">
  <advance width="565"/>
  <unicode hex="0024"/>
  <outline>
    <contour>
      <point x="150" y="-162" type="curve"/>
      <point x="207" y="-162"/>
      <point x="245" y="-125"/>
      <point x="271" y="-57" type="curve"/>
      <point x="397" y="-46"/>
      <point x="506" y="25"/>
      <point x="506" y="146" type="curve" smooth="yes"/>
      <point x="506" y="244"/>
      <point x="429" y="286"/>
      <point x="355" y="323" type="curve"/>
      <point x="374" y="423"/>
      <point x="391" y="519"/>
      <point x="409" y="618" type="curve"/>
      <point x="458" y="617"/>
      <point x="474" y="602"/>
      <point x="474" y="574" type="curve" smooth="yes"/>
      <point x="474" y="534"/>
      <point x="438" y="463"/>
      <point x="438" y="430" type="curve" smooth="yes"/>
      <point x="438" y="409"/>
      <point x="454" y="387"/>
      <point x="485" y="381" type="curve"/>
      <point x="517" y="434"/>
      <point x="536" y="494"/>
      <point x="536" y="547" type="curve" smooth="yes"/>
      <point x="536" y="610"/>
      <point x="507" y="654"/>
      <point x="416" y="656" type="curve"/>
      <point x="422" y="686"/>
      <point x="426" y="702"/>
      <point x="430" y="720" type="curve"/>
      <point x="389" y="715"/>
      <point x="364" y="681"/>
      <point x="364" y="653" type="curve"/>
      <point x="240" y="633"/>
      <point x="140" y="542"/>
      <point x="140" y="431" type="curve" smooth="yes"/>
      <point x="140" y="339"/>
      <point x="215" y="298"/>
      <point x="286" y="260" type="curve"/>
      <point x="264" y="160"/>
      <point x="242" y="67"/>
      <point x="220" y="-11" type="curve"/>
      <point x="146" y="-2"/>
      <point x="102" y="35"/>
      <point x="102" y="96" type="curve" smooth="yes"/>
      <point x="102" y="139"/>
      <point x="123" y="189"/>
      <point x="167" y="234" type="curve"/>
      <point x="98" y="234"/>
      <point x="13" y="191"/>
      <point x="13" y="98" type="curve" smooth="yes"/>
      <point x="13" y="1"/>
      <point x="104" y="-48"/>
      <point x="204" y="-57" type="curve"/>
      <point x="189" y="-99"/>
      <point x="170" y="-136"/>
    </contour>
    <contour>
      <point x="286" y="-10" type="curve"/>
      <point x="298" y="29"/>
      <point x="317" y="121"/>
      <point x="338" y="232" type="curve"/>
      <point x="384" y="204"/>
      <point x="421" y="171"/>
      <point x="421" y="116" type="curve" smooth="yes"/>
      <point x="421" y="50"/>
      <point x="371" y="1"/>
    </contour>
    <contour>
      <point x="306" y="349" type="curve"/>
      <point x="257" y="374"/>
      <point x="218" y="404"/>
      <point x="218" y="455" type="curve" smooth="yes"/>
      <point x="218" y="519"/>
      <point x="270" y="591"/>
      <point x="356" y="612" type="curve"/>
      <point x="345" y="548"/>
      <point x="325" y="447"/>
    </contour>
  </outline>
</glyph>
<glyph name="one" format="2">
  <advance width="392"/>
  <unicode hex="0031"/>
  <outline>
    <contour>
      <point x="72" y="-87" type="curve" smooth="yes"/>
      <point x="104" y="-87"/>
      <point x="179" y="-78"/>
      <point x="237" y="-78" type="curve" smooth="yes"/>
      <point x="264" y="-78"/>
      <point x="296" y="-80"/>
      <point x="329" y="-84" type="curve"/>
      <point x="316" y="-26"/>
      <point x="273" y="-13"/>
      <point x="222" y="-13" type="curve" smooth="yes"/>
      <point x="208" y="-13"/>
      <point x="199" y="-14"/>
      <point x="187" y="-15" type="curve"/>
      <point x="268" y="170"/>
      <point x="303" y="396"/>
      <point x="330" y="572" type="curve" smooth="yes"/>
      <point x="337" y="618"/>
      <point x="352" y="649"/>
      <point x="352" y="680" type="curve" smooth="yes"/>
      <point x="352" y="696"/>
      <point x="348" y="711"/>
      <point x="339" y="719" type="curve"/>
      <point x="257" y="641"/>
      <point x="152" y="567"/>
      <point x="113" y="548" type="curve"/>
      <point x="113" y="516"/>
      <point x="125" y="507"/>
      <point x="142" y="507" type="curve" smooth="yes"/>
      <point x="160" y="507"/>
      <point x="183" y="517"/>
      <point x="254" y="564" type="curve"/>
      <point x="223" y="428"/>
      <point x="180" y="110"/>
      <point x="122" y="-24" type="curve"/>
      <point x="87" y="-29"/>
      <point x="47" y="-34"/>
      <point x="18" y="-34" type="curve" smooth="yes"/>
      <point x="-1" y="-34"/>
      <point x="-11" y="-32"/>
      <point x="-34" y="-31" type="curve"/>
      <point x="-6" y="-67"/>
      <point x="25" y="-87"/>
    </contour>
  </outline>
</glyph>
<glyph name="colon" format="2">
  <advance width="251"/>
  <unicode hex="003A"/>
  <outline>
    <contour>
      <point x="128" y="228" type="curve" smooth="yes"/>
      <point x="159" y="228"/>
      <point x="186" y="255"/>
      <point x="186" y="277" type="curve" smooth="yes"/>
      <point x="186" y="300"/>
      <point x="173" y="308"/>
      <point x="153" y="308" type="curve" smooth="yes"/>
      <point x="124" y="308"/>
      <point x="88" y="286"/>
      <point x="88" y="261" type="curve" smooth="yes"/>
      <point x="88" y="238"/>
      <point x="109" y="228"/>
    </contour>
    <contour>
      <point x="72" y="-10" type="curve" smooth="yes"/>
      <point x="103" y="-10"/>
      <point x="130" y="17"/>
      <point x="130" y="39" type="curve" smooth="yes"/>
      <point x="130" y="62"/>
      <point x="117" y="70"/>
      <point x="97" y="70" type="curve" smooth="yes"/>
      <point x="66" y="70"/>
      <point x="32" y="48"/>
      <point x="32" y="23" type="curve" smooth="yes"/>
      <point x="32" y="0"/>
      <point x="53" y="-10"/>
    </contour>
  </outline>
</glyph>
<glyph name="semicolon" format="2">
  <advance width="250"/>
  <unicode hex="003B"/>
  <outline>
    <contour>
      <point x="51" y="-88" type="curve"/>
      <point x="75" y="-35"/>
      <point x="92" y="-4"/>
      <point x="125" y="33" type="curve"/>
      <point x="124" y="51"/>
      <point x="107" y="67"/>
      <point x="90" y="67" type="curve" smooth="yes"/>
      <point x="55" y="67"/>
      <point x="23" y="-1"/>
      <point x="23" y="-43" type="curve" smooth="yes"/>
      <point x="23" y="-61"/>
      <point x="32" y="-78"/>
    </contour>
    <contour>
      <point x="128" y="229" type="curve" smooth="yes"/>
      <point x="158" y="229"/>
      <point x="187" y="257"/>
      <point x="187" y="279" type="curve" smooth="yes"/>
      <point x="187" y="302"/>
      <point x="172" y="310"/>
      <point x="152" y="310" type="curve" smooth="yes"/>
      <point x="121" y="310"/>
      <point x="88" y="288"/>
      <point x="88" y="263" type="curve" smooth="yes"/>
      <point x="88" y="239"/>
      <point x="107" y="229"/>
    </contour>
  </outline>
</glyph>
<glyph name="Z" format="2">
  <advance width="680"/>
  <unicode hex="005A"/>
  <outline>
    <contour>
      <point x="490" y="-87" type="curve" smooth="yes"/>
      <point x="548" y="-87"/>
      <point x="584" y="-61"/>
      <point x="614" y="18" type="curve"/>
      <point x="583" y="3"/>
      <point x="557" y="-4"/>
      <point x="524" y="-4" type="curve" smooth="yes"/>
      <point x="462" y="-4"/>
      <point x="371" y="21"/>
      <point x="285" y="47" type="curve"/>
      <point x="357" y="116"/>
      <point x="432" y="215"/>
      <point x="496" y="316" type="curve"/>
      <point x="590" y="318"/>
      <point x="611" y="320"/>
      <point x="644" y="365" type="curve"/>
      <point x="607" y="365"/>
      <point x="580" y="369"/>
      <point x="530" y="373" type="curve"/>
      <point x="583" y="461"/>
      <point x="626" y="546"/>
      <point x="654" y="612" type="curve"/>
      <point x="668" y="619"/>
      <point x="687" y="631"/>
      <point x="717" y="661" type="curve"/>
      <point x="704" y="658"/>
      <point x="680" y="657"/>
      <point x="667" y="657" type="curve" smooth="yes"/>
      <point x="558" y="657"/>
      <point x="452" y="720"/>
      <point x="305" y="720" type="curve" smooth="yes"/>
      <point x="172" y="720"/>
      <point x="100" y="670"/>
      <point x="100" y="580" type="curve" smooth="yes"/>
      <point x="100" y="537"/>
      <point x="122" y="510"/>
      <point x="174" y="501" type="curve"/>
      <point x="169" y="510"/>
      <point x="165" y="544"/>
      <point x="165" y="530" type="curve"/>
      <point x="165" y="647"/>
      <point x="212" y="678"/>
      <point x="275" y="678" type="curve" smooth="yes"/>
      <point x="314" y="678"/>
      <point x="370" y="666"/>
      <point x="477" y="627" type="curve" smooth="yes"/>
      <point x="509" y="615"/>
      <point x="529" y="608"/>
      <point x="557" y="600" type="curve"/>
      <point x="535" y="544"/>
      <point x="495" y="465"/>
      <point x="445" y="380" type="curve"/>
      <point x="430" y="381"/>
      <point x="419" y="382"/>
      <point x="399" y="382" type="curve" smooth="yes"/>
      <point x="316" y="382"/>
      <point x="244" y="365"/>
      <point x="241" y="297" type="curve"/>
      <point x="271" y="301" type="line"/>
      <point x="332" y="309"/>
      <point x="367" y="312"/>
      <point x="406" y="314" type="curve"/>
      <point x="347" y="220"/>
      <point x="281" y="128"/>
      <point x="218" y="65" type="curve"/>
      <point x="166" y="79"/>
      <point x="117" y="90"/>
      <point x="77" y="90" type="curve" smooth="yes"/>
      <point x="13" y="90"/>
      <point x="-8" y="62"/>
      <point x="-8" y="33" type="curve" smooth="yes"/>
      <point x="-8" y="-6"/>
      <point x="31" y="-54"/>
      <point x="96" y="-54" type="curve" smooth="yes"/>
      <point x="138" y="-54"/>
      <point x="182" y="-34"/>
      <point x="229" y="0" type="curve"/>
      <point x="303" y="-33"/>
      <point x="406" y="-87"/>
    </contour>
    <contour>
      <point x="88" y="-21" type="curve" smooth="yes"/>
      <point x="52" y="-21"/>
      <point x="25" y="6"/>
      <point x="25" y="27" type="curve" smooth="yes"/>
      <point x="25" y="41"/>
      <point x="37" y="53"/>
      <point x="65" y="53" type="curve" smooth="yes"/>
      <point x="93" y="53"/>
      <point x="130" y="39"/>
      <point x="171" y="23" type="curve"/>
      <point x="137" y="-3"/>
      <point x="112" y="-21"/>
    </contour>
  </outline>
</glyph>
<glyph name="backslash" format="2">
  <advance width="604"/>
  <unicode hex="005C"/>
  <outline>
    <contour>
      <point x="488" y="-167" type="curve"/>
      <point x="439" y="-109"/>
      <point x="327" y="488"/>
      <point x="255" y="671" type="curve" smooth="yes"/>
      <point x="245" y="696"/>
      <point x="209" y="724"/>
      <point x="173" y="724" type="curve"/>
      <point x="258" y="392"/>
      <point x="302" y="168"/>
      <point x="346" y="28" type="curve" smooth="yes"/>
      <point x="384" y="-96"/>
      <point x="422" y="-155"/>
    </contour>
  </outline>
</glyph>
<glyph name="bracketright" format="2">
  <advance width="457"/>
  <unicode hex="005D"/>
  <outline>
    <contour>
      <point x="14" y="-88" type="curve"/>
      <point x="72" y="-70"/>
      <point x="145" y="-69"/>
      <point x="221" y="-69" type="curve" smooth="yes"/>
      <point x="319" y="-69"/>
      <point x="345" y="73"/>
      <point x="357" y="136" type="curve" smooth="yes"/>
      <point x="388" y="299"/>
      <point x="437" y="627"/>
      <point x="443" y="701" type="curve"/>
      <point x="380" y="714"/>
      <point x="319" y="722"/>
      <point x="256" y="722" type="curve" smooth="yes"/>
      <point x="176" y="722"/>
      <point x="125" y="709"/>
      <point x="125" y="640" type="curve"/>
      <point x="185" y="656"/>
      <point x="243" y="661"/>
      <point x="329" y="663" type="curve" smooth="yes"/>
      <point x="396" y="663" type="line"/>
      <point x="365" y="529"/>
      <point x="310" y="148"/>
      <point x="255" y="-10" type="curve"/>
      <point x="215" y="-8"/>
      <point x="167" y="-2"/>
      <point x="132" y="-2" type="curve" smooth="yes"/>
      <point x="77" y="-2"/>
      <point x="19" y="-17"/>
    </contour>
  </outline>
</glyph>
<glyph name="underscore" format="2">
  <advance width="887"/>
  <unicode hex="005F"/>
  <outline>
    <contour>
      <point x="-2" y="-73" type="curve"/>
      <point x="80" y="-56"/>
      <point x="117" y="-50"/>
      <point x="247" y="-50" type="curve" smooth="yes"/>
      <point x="308" y="-50"/>
      <point x="447" y="-60"/>
      <point x="586" y="-60" type="curve" smooth="yes"/>
      <point x="626" y="-60"/>
      <point x="687" y="-43"/>
      <point x="756" y="2" type="curve"/>
      <point x="628" y="5"/>
      <point x="500" y="21"/>
      <point x="316" y="21" type="curve" smooth="yes"/>
      <point x="131" y="21"/>
      <point x="9" y="5"/>
    </contour>
  </outline>
</glyph>
<glyph name="f" format="2">
  <advance width="330"/>
  <unicode hex="0066"/>
  <outline>
    <contour>
      <point x="-1" y="-280" type="curve" smooth="yes"/>
      <point x="80" y="-280"/>
      <point x="158" y="-105"/>
      <point x="160" y="60" type="curve"/>
      <point x="183" y="43"/>
      <point x="208" y="33"/>
      <point x="231" y="33" type="curve" smooth="yes"/>
      <point x="273" y="33"/>
      <point x="332" y="70"/>
      <point x="375" y="156" type="curve"/>
      <point x="353" y="172" type="line"/>
      <point x="315" y="109"/>
      <point x="282" y="73"/>
      <point x="236" y="73" type="curve" smooth="yes"/>
      <point x="174" y="73"/>
      <point x="163" y="135"/>
      <point x="148" y="221" type="curve" smooth="yes"/>
      <point x="146" y="235"/>
      <point x="137" y="250"/>
      <point x="123" y="256" type="curve"/>
      <point x="128" y="269"/>
      <point x="133" y="282"/>
      <point x="139" y="296" type="curve"/>
      <point x="274" y="385"/>
      <point x="412" y="554"/>
      <point x="412" y="669" type="curve" smooth="yes"/>
      <point x="412" y="696"/>
      <point x="404" y="720"/>
      <point x="370" y="720" type="curve" smooth="yes"/>
      <point x="189" y="720"/>
      <point x="-66" y="17"/>
      <point x="-66" y="-184" type="curve" smooth="yes"/>
      <point x="-66" y="-266"/>
      <point x="-24" y="-280"/>
    </contour>
    <contour>
      <point x="27" y="-218" type="curve" smooth="yes"/>
      <point x="16" y="-218"/>
      <point x="11" y="-202"/>
      <point x="11" y="-175" type="curve" smooth="yes"/>
      <point x="11" y="-105"/>
      <point x="43" y="23"/>
      <point x="90" y="162" type="curve"/>
      <point x="111" y="124"/>
      <point x="119" y="98"/>
      <point x="119" y="60" type="curve" smooth="yes"/>
      <point x="119" y="-39"/>
      <point x="64" y="-218"/>
    </contour>
    <contour>
      <point x="168" y="366" type="curve"/>
      <point x="232" y="518"/>
      <point x="303" y="639"/>
      <point x="352" y="639" type="curve" smooth="yes"/>
      <point x="358" y="639"/>
      <point x="360" y="637"/>
      <point x="360" y="631" type="curve" smooth="yes"/>
      <point x="360" y="596"/>
      <point x="290" y="480"/>
    </contour>
  </outline>
</glyph>
<glyph name="i" format="2">
  <advance width="244"/>
  <unicode hex="0069"/>
  <anchor x="98" y="0" name="ogonek"/>
  <outline>
    <contour>
      <point x="80" y="-30" type="curve" smooth="yes"/>
      <point x="163" y="-30"/>
      <point x="238" y="38"/>
      <point x="285" y="156" type="curve"/>
      <point x="270" y="172" type="line"/>
      <point x="212" y="58"/>
      <point x="158" y="19"/>
      <point x="113" y="19" type="curve" smooth="yes"/>
      <point x="84" y="19"/>
      <point x="68" y="29"/>
      <point x="68" y="72" type="curve" smooth="yes"/>
      <point x="68" y="160"/>
      <point x="171" y="277"/>
      <point x="171" y="311" type="curve" smooth="yes"/>
      <point x="171" y="330"/>
      <point x="157" y="340"/>
      <point x="141" y="340" type="curve" smooth="yes"/>
      <point x="66" y="340"/>
      <point x="-8" y="135"/>
      <point x="-8" y="59" type="curve" smooth="yes"/>
      <point x="-8" y="10"/>
      <point x="21" y="-30"/>
    </contour>
    <contour>
      <point x="198" y="421" type="curve" smooth="yes"/>
      <point x="234" y="421"/>
      <point x="271" y="453"/>
      <point x="271" y="481" type="curve" smooth="yes"/>
      <point x="271" y="509"/>
      <point x="252" y="518"/>
      <point x="228" y="518" type="curve" smooth="yes"/>
      <point x="191" y="518"/>
      <point x="148" y="492"/>
      <point x="148" y="460" type="curve" smooth="yes"/>
      <point x="148" y="433"/>
      <point x="173" y="421"/>
    </contour>
  </outline>
</glyph>
<glyph name="yen" format="2">
  <advance width="868"/>
  <unicode hex="00A5"/>
  <outline>
    <contour>
      <point x="382" y="-187" type="curve" smooth="yes"/>
      <point x="500" y="-187"/>
      <point x="569" y="-118"/>
      <point x="613" y="-26" type="curve"/>
      <point x="659" y="-26" type="line" smooth="yes"/>
      <point x="689" y="-26"/>
      <point x="736" y="-19"/>
      <point x="786" y="16" type="curve"/>
      <point x="729" y="20"/>
      <point x="685" y="24"/>
      <point x="635" y="25" type="curve"/>
      <point x="641" y="41"/>
      <point x="646" y="57"/>
      <point x="652" y="73" type="curve"/>
      <point x="687" y="73"/>
      <point x="734" y="80"/>
      <point x="784" y="114" type="curve"/>
      <point x="763" y="115"/>
      <point x="711" y="120"/>
      <point x="665" y="122" type="curve"/>
      <point x="674" y="152"/>
      <point x="683" y="181"/>
      <point x="690" y="211" type="curve" smooth="yes"/>
      <point x="732" y="374"/>
      <point x="757" y="539"/>
      <point x="848" y="682" type="curve"/>
      <point x="827" y="704"/>
      <point x="797" y="720"/>
      <point x="781" y="720" type="curve" smooth="yes"/>
      <point x="733" y="720"/>
      <point x="689" y="585"/>
      <point x="655" y="439" type="curve"/>
      <point x="612" y="330"/>
      <point x="538" y="199"/>
      <point x="444" y="199" type="curve" smooth="yes"/>
      <point x="394" y="199"/>
      <point x="375" y="237"/>
      <point x="375" y="294" type="curve" smooth="yes"/>
      <point x="375" y="398"/>
      <point x="439" y="541"/>
      <point x="439" y="612" type="curve" smooth="yes"/>
      <point x="439" y="665"/>
      <point x="404" y="720"/>
      <point x="321" y="720" type="curve" smooth="yes"/>
      <point x="207" y="720"/>
      <point x="119" y="618"/>
      <point x="119" y="536" type="curve" smooth="yes"/>
      <point x="119" y="492"/>
      <point x="144" y="459"/>
      <point x="209" y="459" type="curve"/>
      <point x="200" y="479"/>
      <point x="196" y="500"/>
      <point x="196" y="521" type="curve" smooth="yes"/>
      <point x="196" y="582"/>
      <point x="228" y="681"/>
      <point x="299" y="681" type="curve" smooth="yes"/>
      <point x="341" y="681"/>
      <point x="354" y="644"/>
      <point x="354" y="605" type="curve" smooth="yes"/>
      <point x="354" y="517"/>
      <point x="290" y="373"/>
      <point x="290" y="272" type="curve" smooth="yes"/>
      <point x="290" y="196"/>
      <point x="327" y="145"/>
      <point x="413" y="145" type="curve" smooth="yes"/>
      <point x="504" y="145"/>
      <point x="570" y="214"/>
      <point x="621" y="298" type="curve"/>
      <point x="608" y="234"/>
      <point x="599" y="163"/>
      <point x="590" y="125" type="curve"/>
      <point x="485" y="124"/>
      <point x="400" y="113"/>
      <point x="381" y="60" type="curve"/>
      <point x="456" y="71"/>
      <point x="518" y="72"/>
      <point x="577" y="73" type="curve"/>
      <point x="572" y="57"/>
      <point x="566" y="42"/>
      <point x="561" y="26" type="curve"/>
      <point x="473" y="24"/>
      <point x="401" y="10"/>
      <point x="383" y="-38" type="curve"/>
      <point x="443" y="-29"/>
      <point x="493" y="-26"/>
      <point x="540" y="-26" type="curve"/>
      <point x="509" y="-87"/>
      <point x="461" y="-148"/>
      <point x="384" y="-148" type="curve" smooth="yes"/>
      <point x="328" y="-148"/>
      <point x="296" y="-116"/>
      <point x="296" y="-70" type="curve" smooth="yes"/>
      <point x="296" y="-52"/>
      <point x="301" y="-21"/>
      <point x="306" y="-2" type="curve"/>
      <point x="254" y="-20"/>
      <point x="229" y="-48"/>
      <point x="229" y="-87" type="curve" smooth="yes"/>
      <point x="229" y="-153"/>
      <point x="300" y="-187"/>
    </contour>
  </outline>
</glyph>
<glyph name="guillemetleft" format="2">
  <advance width="480"/>
  <unicode hex="00AB"/>
  <outline>
    <contour>
      <point x="353" y="44" type="curve" smooth="yes"/>
      <point x="368" y="44"/>
      <point x="383" y="58"/>
      <point x="394" y="70" type="curve"/>
      <point x="300" y="104"/>
      <point x="270" y="121"/>
      <point x="230" y="147" type="curve"/>
      <point x="299" y="182"/>
      <point x="390" y="233"/>
      <point x="390" y="287" type="curve" smooth="yes"/>
      <point x="390" y="294"/>
      <point x="381" y="316"/>
      <point x="378" y="319" type="curve"/>
      <point x="332" y="258"/>
      <point x="253" y="194"/>
      <point x="180" y="165" type="curve"/>
      <point x="193" y="123"/>
      <point x="302" y="44"/>
    </contour>
    <contour>
      <point x="200" y="44" type="curve" smooth="yes"/>
      <point x="215" y="44"/>
      <point x="230" y="58"/>
      <point x="241" y="70" type="curve"/>
      <point x="147" y="104"/>
      <point x="117" y="121"/>
      <point x="77" y="147" type="curve"/>
      <point x="146" y="182"/>
      <point x="237" y="233"/>
      <point x="237" y="287" type="curve" smooth="yes"/>
      <point x="237" y="294"/>
      <point x="228" y="316"/>
      <point x="225" y="319" type="curve"/>
      <point x="179" y="258"/>
      <point x="100" y="194"/>
      <point x="27" y="165" type="curve"/>
      <point x="40" y="123"/>
      <point x="149" y="44"/>
    </contour>
  </outline>
</glyph>
<glyph name="periodcentered" format="2">
  <advance width="241"/>
  <unicode hex="00B7"/>
  <anchor x="107" y="157" name="_center"/>
  <outline>
    <contour>
      <point x="99" y="115" type="curve" smooth="yes"/>
      <point x="133" y="115"/>
      <point x="155" y="156"/>
      <point x="155" y="172" type="curve" smooth="yes"/>
      <point x="155" y="196"/>
      <point x="137" y="201"/>
      <point x="122" y="201" type="curve" smooth="yes"/>
      <point x="95" y="201"/>
      <point x="58" y="174"/>
      <point x="58" y="152" type="curve" smooth="yes"/>
      <point x="58" y="134"/>
      <point x="67" y="115"/>
    </contour>
  </outline>
</glyph>
<glyph name="Thorn" format="2">
  <advance width="543"/>
  <unicode hex="00DE"/>
  <outline>
    <contour>
      <point x="133" y="-87" type="curve"/>
      <point x="154" y="-16"/>
      <point x="174" y="68"/>
      <point x="199" y="152" type="curve"/>
      <point x="306" y="156"/>
      <point x="573" y="198"/>
      <point x="573" y="381" type="curve" smooth="yes"/>
      <point x="573" y="506"/>
      <point x="448" y="566"/>
      <point x="334" y="581" type="curve"/>
      <point x="350" y="624"/>
      <point x="368" y="664"/>
      <point x="385" y="698" type="curve"/>
      <point x="371" y="714"/>
      <point x="361" y="716"/>
      <point x="353" y="716" type="curve" smooth="yes"/>
      <point x="300" y="716"/>
      <point x="280" y="629"/>
      <point x="259" y="581" type="curve"/>
      <point x="182" y="574"/>
      <point x="107" y="546"/>
      <point x="59" y="527" type="curve"/>
      <point x="59" y="512"/>
      <point x="88" y="488"/>
      <point x="99" y="488" type="curve" smooth="yes"/>
      <point x="113" y="488"/>
      <point x="164" y="527"/>
      <point x="242" y="542" type="curve"/>
      <point x="172" y="364"/>
      <point x="115" y="191"/>
      <point x="62" y="26" type="curve" smooth="yes"/>
      <point x="56" y="8"/>
      <point x="49" y="-16"/>
      <point x="49" y="-30" type="curve" smooth="yes"/>
      <point x="49" y="-64"/>
      <point x="93" y="-87"/>
    </contour>
    <contour>
      <point x="208" y="186" type="curve"/>
      <point x="243" y="313"/>
      <point x="279" y="435"/>
      <point x="320" y="546" type="curve"/>
      <point x="406" y="542"/>
      <point x="491" y="502"/>
      <point x="491" y="402" type="curve" smooth="yes"/>
      <point x="491" y="273"/>
      <point x="350" y="204"/>
    </contour>
  </outline>
</glyph>
<glyph name="quoteright" format="2">
  <advance width="164"/>
  <unicode hex="2019"/>
  <outline>
    <contour>
      <point x="177" y="571" type="curve"/>
      <point x="202" y="608"/>
      <point x="250" y="658"/>
      <point x="251" y="687" type="curve" smooth="yes"/>
      <point x="251" y="705"/>
      <point x="232" y="722"/>
      <point x="213" y="722" type="curve"/>
      <point x="201" y="685"/>
      <point x="143" y="644"/>
      <point x="143" y="612" type="curve" smooth="yes"/>
      <point x="143" y="596"/>
      <point x="161" y="580"/>
    </contour>
  </outline>
</glyph>
<glyph name="quotedblleft" format="2">
  <advance width="307"/>
  <unicode hex="201C"/>
  <outline>
    <contour>
      <point x="345" y="573" type="curve"/>
      <point x="361" y="582"/>
      <point x="379" y="598"/>
      <point x="379" y="614" type="curve" smooth="yes"/>
      <point x="379" y="646"/>
      <point x="321" y="687"/>
      <point x="309" y="724" type="curve"/>
      <point x="290" y="724"/>
      <point x="271" y="707"/>
      <point x="271" y="689" type="curve" smooth="yes"/>
      <point x="272" y="660"/>
      <point x="320" y="610"/>
    </contour>
    <contour>
      <point x="221" y="573" type="curve"/>
      <point x="237" y="582"/>
      <point x="255" y="598"/>
      <point x="255" y="614" type="curve" smooth="yes"/>
      <point x="255" y="646"/>
      <point x="197" y="687"/>
      <point x="185" y="724" type="curve"/>
      <point x="166" y="724"/>
      <point x="147" y="707"/>
      <point x="147" y="689" type="curve" smooth="yes"/>
      <point x="148" y="660"/>
      <point x="196" y="610"/>
    </contour>
  </outline>
</glyph>
<glyph name="foursuperior" format="2">
  <advance width="319"/>
  <unicode hex="2074"/>
  <outline>
    <contour>
      <point x="273" y="310" type="curve"/>
      <point x="273" y="351"/>
      <point x="286" y="438"/>
      <point x="290" y="467" type="curve"/>
      <point x="309" y="467"/>
      <point x="338" y="488"/>
      <point x="361" y="519" type="curve"/>
      <point x="336" y="515"/>
      <point x="318" y="511"/>
      <point x="308" y="511" type="curve" smooth="yes"/>
      <point x="298" y="511" type="line"/>
      <point x="322" y="640"/>
      <point x="341" y="687"/>
      <point x="341" y="699" type="curve" smooth="yes"/>
      <point x="341.0" y="713"/>
      <point x="333" y="719"/>
      <point x="320" y="720" type="curve"/>
      <point x="271" y="639"/>
      <point x="165" y="549"/>
      <point x="102" y="496" type="curve" smooth="yes"/>
      <point x="96" y="491"/>
      <point x="90" y="479"/>
      <point x="90" y="458" type="curve"/>
      <point x="118" y="465"/>
      <point x="159" y="469"/>
      <point x="198" y="469" type="curve" smooth="yes"/>
      <point x="209" y="469"/>
      <point x="220" y="469"/>
      <point x="231" y="468" type="curve"/>
      <point x="214" y="385"/>
      <point x="210" y="354"/>
      <point x="210" y="345" type="curve" smooth="yes"/>
      <point x="210" y="323"/>
      <point x="232" y="312"/>
    </contour>
    <contour>
      <point x="172" y="514" type="curve"/>
      <point x="192" y="535"/>
      <point x="197" y="539"/>
      <point x="232" y="570" type="curve" smooth="yes"/>
      <point x="260" y="595" type="line"/>
      <point x="252" y="569"/>
      <point x="251" y="561"/>
      <point x="242" y="513" type="curve"/>
      <point x="211" y="513"/>
      <point x="188" y="514"/>
    </contour>
  </outline>
</glyph>
<glyph name="kip" format="2">
  <advance width="638"/>
  <unicode hex="20AD"/>
  <outline>
    <contour>
      <point x="77" y="255" type="curve"/>
      <point x="128" y="267"/>
      <point x="190" y="271"/>
      <point x="305" y="271" type="curve" smooth="yes"/>
      <point x="488" y="271"/>
      <point x="566" y="274"/>
      <point x="574" y="312" type="curve"/>
      <point x="489" y="326"/>
      <point x="401" y="330"/>
      <point x="296" y="330" type="curve" smooth="yes"/>
      <point x="189" y="330"/>
      <point x="80" y="303"/>
    </contour>
    <component base="K" yScale="0.9" yOffset="6"/>
  </outline>
</glyph>
<glyph name="emptyset" format="2">
  <advance width="399"/>
  <unicode hex="2205"/>
  <outline>
    <contour>
      <point x="29" y="-29" type="curve"/>
      <point x="59" y="13"/>
      <point x="74" y="30"/>
      <point x="131" y="85" type="curve" smooth="yes"/>
      <point x="162" y="115"/>
      <point x="239" y="173"/>
      <point x="308" y="242" type="curve" smooth="yes"/>
      <point x="323" y="257"/>
      <point x="341" y="284"/>
      <point x="354" y="325" type="curve"/>
      <point x="297" y="274"/>
      <point x="230" y="232"/>
      <point x="151" y="155" type="curve" smooth="yes"/>
      <point x="61" y="68"/>
      <point x="6" y="5"/>
    </contour>
    <contour>
      <point x="172" y="-9" type="curve" smooth="yes"/>
      <point x="268" y="-9"/>
      <point x="346" y="62"/>
      <point x="346" y="149" type="curve" smooth="yes"/>
      <point x="346" y="245"/>
      <point x="265" y="323"/>
      <point x="164" y="323" type="curve" smooth="yes"/>
      <point x="81" y="323"/>
      <point x="14" y="252"/>
      <point x="14" y="165" type="curve" smooth="yes"/>
      <point x="14" y="69"/>
      <point x="85" y="-9"/>
    </contour>
    <contour>
      <point x="200" y="30" type="curve" smooth="yes"/>
      <point x="121" y="30"/>
      <point x="58" y="70"/>
      <point x="58" y="155" type="curve" smooth="yes"/>
      <point x="58" y="227"/>
      <point x="106" y="285"/>
      <point x="183" y="286" type="curve" smooth="yes"/>
      <point x="246" y="287"/>
      <point x="305" y="212"/>
      <point x="304" y="152" type="curve" smooth="yes"/>
      <point x="303" y="84"/>
      <point x="250" y="30"/>
    </contour>
  </outline>
</glyph>
<glyph name="M.salt" format="2">
  <advance width="995"/>
  <outline>
    <contour>
      <point x="5" y="-103" type="curve" smooth="yes"/>
      <point x="200" y="-103"/>
      <point x="381" y="325"/>
      <point x="424" y="478" type="curve"/>
      <point x="429" y="428"/>
      <point x="431" y="353"/>
      <point x="431" y="308" type="curve" smooth="yes"/>
      <point x="431" y="169"/>
      <point x="412" y="74"/>
      <point x="412" y="41" type="curve" smooth="yes"/>
      <point x="412" y="-4"/>
      <point x="446" y="-15"/>
      <point x="449" y="-15" type="curve" smooth="yes"/>
      <point x="455" y="-15"/>
      <point x="474" y="12"/>
      <point x="477" y="21" type="curve"/>
      <point x="533" y="167"/>
      <point x="559" y="236"/>
      <point x="706" y="443" type="curve"/>
      <point x="661" y="341"/>
      <point x="615" y="189"/>
      <point x="615" y="95" type="curve" smooth="yes"/>
      <point x="615" y="-14"/>
      <point x="678" y="-69"/>
      <point x="741" y="-69" type="curve" smooth="yes"/>
      <point x="824" y="-69"/>
      <point x="921" y="26"/>
      <point x="977" y="161" type="curve"/>
      <point x="960" y="175" type="line"/>
      <point x="905" y="47"/>
      <point x="814" y="-28"/>
      <point x="753" y="-28" type="curve" smooth="yes"/>
      <point x="713" y="-28"/>
      <point x="699" y="5"/>
      <point x="699" y="67" type="curve" smooth="yes"/>
      <point x="699" y="259"/>
      <point x="831" y="546"/>
      <point x="930" y="632" type="curve"/>
      <point x="926" y="653"/>
      <point x="910" y="670"/>
      <point x="890" y="670" type="curve" smooth="yes"/>
      <point x="800" y="670"/>
      <point x="583" y="340"/>
      <point x="497" y="178" type="curve"/>
      <point x="501" y="224"/>
      <point x="504" y="291"/>
      <point x="504" y="343" type="curve" smooth="yes"/>
      <point x="504" y="585"/>
      <point x="440" y="719"/>
      <point x="313" y="719" type="curve" smooth="yes"/>
      <point x="218" y="719"/>
      <point x="165" y="644"/>
      <point x="165" y="581" type="curve" smooth="yes"/>
      <point x="165" y="535"/>
      <point x="194" y="495"/>
      <point x="257" y="475" type="curve"/>
      <point x="240" y="502"/>
      <point x="233" y="529"/>
      <point x="233" y="558" type="curve" smooth="yes"/>
      <point x="233" y="613"/>
      <point x="257" y="687"/>
      <point x="312" y="687" type="curve" smooth="yes"/>
      <point x="359" y="687"/>
      <point x="401" y="633"/>
      <point x="401" y="560" type="curve" smooth="yes"/>
      <point x="401" y="437"/>
      <point x="283" y="206"/>
      <point x="204" y="93" type="curve" smooth="yes"/>
      <point x="155" y="23"/>
      <point x="99" y="-33"/>
      <point x="26" y="-33" type="curve" smooth="yes"/>
      <point x="-18" y="-33"/>
      <point x="-49" y="-12"/>
      <point x="-72" y="21" type="curve"/>
      <point x="-85" y="5"/>
      <point x="-90" y="-12"/>
      <point x="-90" y="-27" type="curve" smooth="yes"/>
      <point x="-90" y="-67"/>
      <point x="-51" y="-103"/>
    </contour>
  </outline>
</glyph>
<glyph name="caroncomb.case" format="2">
  <outline>
    <contour>
      <point x="32" y="366" type="curve" smooth="yes"/>
      <point x="61" y="366"/>
      <point x="151" y="415"/>
      <point x="151" y="455" type="curve" smooth="yes"/>
      <point x="151" y="465"/>
      <point x="144" y="477"/>
      <point x="134" y="484" type="curve"/>
      <point x="106" y="461"/>
      <point x="72" y="440"/>
      <point x="32" y="424" type="curve"/>
      <point x="-1" y="453"/>
      <point x="-24" y="482"/>
      <point x="-45" y="522" type="curve"/>
      <point x="-62" y="514"/>
      <point x="-69" y="500"/>
      <point x="-69" y="486" type="curve" smooth="yes"/>
      <point x="-69" y="441"/>
      <point x="-6" y="366"/>
    </contour>
  </outline>
</glyph>
<glyph name="cedillacomb.case" format="2">
  <outline>
    <contour>
      <point x="-71" y="-233" type="curve" smooth="yes"/>
      <point x="-1" y="-233"/>
      <point x="61" y="-167"/>
      <point x="61" y="-113" type="curve" smooth="yes"/>
      <point x="61" y="-80"/>
      <point x="37" y="-63"/>
      <point x="7" y="-63" type="curve" smooth="yes"/>
      <point x="-14" y="-63"/>
      <point x="-36" y="-71"/>
      <point x="-47" y="-75" type="curve"/>
      <point x="0" y="0" type="line"/>
      <point x="-16" y="0" type="line"/>
      <point x="-42" y="-22"/>
      <point x="-100" y="-103"/>
      <point x="-100" y="-107" type="curve" smooth="yes"/>
      <point x="-100" y="-116"/>
      <point x="-91" y="-132"/>
      <point x="-79" y="-132" type="curve" smooth="yes"/>
      <point x="-62" y="-132"/>
      <point x="-24" y="-95"/>
      <point x="0" y="-95" type="curve" smooth="yes"/>
      <point x="9" y="-95"/>
      <point x="16" y="-100"/>
      <point x="16" y="-111" type="curve" smooth="yes"/>
      <point x="16" y="-141"/>
      <point x="-32" y="-194"/>
      <point x="-65" y="-194" type="curve" smooth="yes"/>
      <point x="-80" y="-194"/>
      <point x="-95" y="-183"/>
      <point x="-105" y="-149" type="curve"/>
      <point x="-127" y="-164"/>
      <point x="-137" y="-180"/>
      <point x="-137" y="-192" type="curve" smooth="yes"/>
      <point x="-137" y="-211"/>
      <point x="-111" y="-233"/>
    </contour>
  </outline>
</glyph>
<glyph name="l_l" format="2">
  <advance width="490"/>
  <outline>
    <contour>
      <point x="94" y="-30" type="curve" smooth="yes"/>
      <point x="152" y="-30"/>
      <point x="203" y="10"/>
      <point x="249" y="78" type="curve"/>
      <point x="250" y="14"/>
      <point x="279" y="-30"/>
      <point x="340" y="-30" type="curve" smooth="yes"/>
      <point x="418" y="-30"/>
      <point x="484" y="43"/>
      <point x="540" y="162" type="curve"/>
      <point x="515" y="175" type="line"/>
      <point x="480" y="98"/>
      <point x="422" y="16"/>
      <point x="370" y="16" type="curve" smooth="yes"/>
      <point x="342" y="16"/>
      <point x="329" y="40"/>
      <point x="329" y="90" type="curve" smooth="yes"/>
      <point x="329" y="117"/>
      <point x="333" y="154"/>
      <point x="340" y="185" type="curve"/>
      <point x="491" y="305"/>
      <point x="584" y="515"/>
      <point x="584" y="597" type="curve" smooth="yes"/>
      <point x="584" y="633"/>
      <point x="566" y="681"/>
      <point x="541" y="681" type="curve" smooth="yes"/>
      <point x="476" y="681"/>
      <point x="293" y="355"/>
      <point x="255" y="150" type="curve"/>
      <point x="219" y="77"/>
      <point x="168" y="16"/>
      <point x="124" y="16" type="curve" smooth="yes"/>
      <point x="97" y="16"/>
      <point x="81" y="38"/>
      <point x="81" y="85" type="curve" smooth="yes"/>
      <point x="81" y="111"/>
      <point x="86" y="151"/>
      <point x="92" y="185" type="curve"/>
      <point x="244" y="305"/>
      <point x="362" y="552"/>
      <point x="362" y="638" type="curve" smooth="yes"/>
      <point x="362" y="671"/>
      <point x="345" y="720"/>
      <point x="320" y="720" type="curve" smooth="yes"/>
      <point x="244" y="720"/>
      <point x="2" y="269"/>
      <point x="2" y="81" type="curve" smooth="yes"/>
      <point x="2" y="16"/>
      <point x="31" y="-30"/>
    </contour>
    <contour>
      <point x="110" y="241" type="curve"/>
      <point x="167" y="422"/>
      <point x="290" y="628"/>
      <point x="315" y="628" type="curve"/>
      <point x="317" y="626"/>
      <point x="317" y="622"/>
      <point x="317" y="616" type="curve" smooth="yes"/>
      <point x="317" y="553"/>
      <point x="219" y="357"/>
    </contour>
    <contour>
      <point x="356" y="240" type="curve"/>
      <point x="412" y="418"/>
      <point x="512" y="588"/>
      <point x="538" y="588" type="curve"/>
      <point x="539" y="585"/>
      <point x="539" y="583"/>
      <point x="539" y="576" type="curve" smooth="yes"/>
      <point x="539" y="514"/>
      <point x="463" y="352"/>
    </contour>
  </outline>
</glyph>
<glyph name="macroncomb.case" format="2">
  <outline>
    <contour>
      <point x="138" y="370" type="curve" smooth="yes"/>
      <point x="157" y="370"/>
      <point x="171" y="378"/>
      <point x="179" y="395" type="curve"/>
      <point x="108" y="420"/>
      <point x="7" y="445"/>
      <point x="-64" y="445" type="curve" smooth="yes"/>
      <point x="-89" y="445"/>
      <point x="-106" y="436"/>
      <point x="-114" y="415" type="curve"/>
      <point x="-54" y="406"/>
      <point x="77" y="370"/>
    </contour>
  </outline>
</glyph>
<glyph name="s.salt" format="2">
  <advance width="311"/>
  <outline>
    <contour>
      <point x="103" y="-51" type="curve" smooth="yes"/>
      <point x="200" y="-51"/>
      <point x="265" y="17"/>
      <point x="265" y="105" type="curve" smooth="yes"/>
      <point x="265" y="188"/>
      <point x="207" y="280"/>
      <point x="207" y="340" type="curve" smooth="yes"/>
      <point x="207" y="357"/>
      <point x="212" y="367"/>
      <point x="212" y="375" type="curve"/>
      <point x="211" y="386"/>
      <point x="204" y="395"/>
      <point x="188" y="395" type="curve" smooth="yes"/>
      <point x="165" y="395"/>
      <point x="148" y="376"/>
      <point x="143" y="313" type="curve"/>
      <point x="118" y="259"/>
      <point x="82" y="213"/>
      <point x="46" y="175" type="curve" smooth="yes"/>
      <point x="32" y="160"/>
      <point x="-23" y="160"/>
      <point x="-23" y="77" type="curve" smooth="yes"/>
      <point x="-23" y="17"/>
      <point x="5" y="-51"/>
    </contour>
    <contour>
      <point x="96" y="-15" type="curve" smooth="yes"/>
      <point x="51" y="-15"/>
      <point x="29" y="24"/>
      <point x="29" y="64" type="curve" smooth="yes"/>
      <point x="29" y="99"/>
      <point x="45" y="112"/>
      <point x="60" y="112" type="curve" smooth="yes"/>
      <point x="71" y="112"/>
      <point x="82" y="105"/>
      <point x="94" y="90" type="curve"/>
      <point x="108" y="106"/>
      <point x="114" y="119"/>
      <point x="114" y="129" type="curve" smooth="yes"/>
      <point x="114" y="146"/>
      <point x="95" y="161"/>
      <point x="81" y="167" type="curve"/>
      <point x="103" y="192"/>
      <point x="131" y="233"/>
      <point x="153" y="267" type="curve"/>
      <point x="164" y="222"/>
      <point x="185" y="146"/>
      <point x="185" y="95" type="curve" smooth="yes"/>
      <point x="185" y="20"/>
      <point x="139" y="-15"/>
    </contour>
  </outline>
</glyph>
